<?xml version="1.0" standalone="no"?>
<!DOCTYPE svg PUBLIC "-//W3C//DTD SVG 1.1//EN" "http://www.w3.org/Graphics/SVG/1.1/DTD/svg11.dtd">
<svg width="100%" height="100%" viewBox="0 0 264 264" version="1.1" xmlns="http://www.w3.org/2000/svg" xmlns:xlink="http://www.w3.org/1999/xlink" xml:space="preserve" style="fill-rule:evenodd;clip-rule:evenodd;stroke-linejoin:round;stroke-miterlimit:1.41421;">
    <g transform="matrix(1,0,0,1,-415.682,-2215.57)">
        <g transform="matrix(1,0,0,1,-183.027,481.262)">
            <g transform="matrix(0.707107,-0.707107,0.707107,0.707107,-594.074,1550)">
                <path d="M712.942,987.77L768.236,1098.36L713.104,1079.83L657.649,1098.36L712.942,987.77Z" style="fill:black;"/>
            </g>
            <g transform="matrix(0.707107,-0.707107,-0.707107,-0.707107,1047.64,3191.88)">
                <path d="M712.942,987.77L768.236,1098.36L713.104,1079.83L657.649,1098.36L712.942,987.77Z" style="fill:black;"/>
            </g>
            <g transform="matrix(-0.707107,-0.707107,-0.707107,0.707107,1918.59,1685.87)">
                <path d="M712.942,987.77L768.236,1098.36L713.104,1079.83L657.649,1098.36L712.942,987.77Z" style="fill:black;"/>
            </g>
            <g transform="matrix(-0.707107,-0.707107,0.707107,-0.707107,550.274,3054.19)">
                <path d="M712.942,987.77L768.236,1098.36L713.104,1079.83L657.649,1098.36L712.942,987.77Z" style="fill:black;"/>
            </g>
        </g>
    </g>
</svg>
